#!OML:ASF H:\Punching\Project 1\Capture day 1\Session 1\female.ASF
:FULLY-SPECIFIED
:DEGREES
1034
root -1.4253 11.9959 5.33029 16.2717 -9.34567 -3.5817
lowerback 14.8419 -1.01007 1.59375
upperback -0.50714 -0.909961 1.70985
thorax -8.89556 -0.467599 1.13616
lowerneck -6.45912 8.76217 18.745
upperneck 24.4725 10.9973 -7.57719
head 10.4217 6.01274 -4.50031
rclavicle 2.51711e-014 -2.03754e-014
rhumerus 16.7383 29.1981 -82.5257
rradius 135.052
rwrist -39.3778
rhand -16.8614 -3.11584
rfingers 7.12502
rthumb 9.36912 -32.8876
lclavicle 2.51711e-014 -2.03754e-014
lhumerus 32.3667 -34.3868 69.4364
lradius 107.1
lwrist 13.8393
lhand -15.1631 32.6493
lfingers 7.12502
lthumb 11.0074 62.3407
rfemur -78.8838 2.04545 18.8568
rtibia 85.8008
rfoot -22.5806 2.15957
rtoes -5.49741
lfemur -32.5805 7.40155 7.38602
ltibia 91.0888
lfoot -27.1608 -8.34835
ltoes -44.451
1035
root -1.39527 11.9646 5.33254 16.2412 -10.8645 -4.1826
lowerback 14.8315 -1.51258 1.28653
upperback -0.380848 -1.64435 1.59331
thorax -8.74118 -0.810052 1.34435
lowerneck -5.49629 9.67018 19.8165
upperneck 24.2117 12.4333 -8.22335
head 10.4938 6.7151 -4.7189
rclavicle -4.18442e-014 0
rhumerus 16.5297 30.0339 -82.5646
rradius 134.856
rwrist -39.1901
rhand -16.8005 -3.05343
rfingers 7.12502
rthumb 9.42783 -32.8226
lclavicle -4.18442e-014 0
lhumerus 35.2218 -32.7835 67.6437
lradius 100.682
lwrist 10.7658
lhand -15.0768 32.5742
lfingers 7.12502
lthumb 11.0906 62.2612
rfemur -78.9746 2.7099 19.6297
rtibia 85.6073
rfoot -22.4131 3.15989
rtoes -5.10918
lfemur -31.8056 7.89954 7.59083
ltibia 91.688
lfoot -26.994 -7.77958
ltoes -44.2905
1036
root -1.36896 11.9338 5.33174 16.2042 -12.2171 -4.71524
lowerback 14.8546 -2.01809 0.930521
upperback -0.273365 -2.38915 1.474
thorax -8.61879 -1.1564 1.5792
lowerneck -4.53383 10.4964 20.8288
upperneck 23.9512 13.7678 -8.81382
head 10.5685 7.37373 -4.91652
rclavicle 8.15017e-015 -1.82882e-014
rhumerus 16.329 30.7731 -82.5293
rradius 134.685
rwrist -39.072
rhand -16.7896 -3.00842
rfingers 7.12502
rthumb 9.43839 -32.7771
lclavicle 8.15017e-015 -1.82882e-014
lhumerus 38.1363 -31.0431 66.0227
lradius 93.2524
lwrist 7.2347
lhand -14.8647 32.4688
lfingers 7.12502
lthumb 11.2952 62.1447
rfemur -79.0345 3.32919 20.3002
rtibia 85.452
rfoot -22.2542 4.05112
rtoes -4.72217
lfemur -31.1508 8.29981 7.77219
ltibia 92.2654
lfoot -26.7678 -7.30915
ltoes -44.0614
1037
root -1.34606 11.9037 5.32817 16.1465 -13.3953 -5.15735
lowerback 14.9139 -2.52383 0.502505
upperback -0.177145 -3.14421 1.36595
thorax -8.51743 -1.50514 1.86939
lowerneck -3.60181 11.2473 21.7435
upperneck 23.6904 15.009 -9.35823
head 10.6439 7.98715 -5.08942
rclavicle 4.37326e-014 -3.49861e-014
rhumerus 16.204 31.4207 -82.3845
rradius 134.532
rwrist -38.988
rhand -16.8267 -3.01823
rfingers 7.12502
rthumb 9.40256 -32.7885
lclavicle 4.37326e-014 -3.49861e-014
lhumerus 41.05 -29.1604 64.6561
lradius 84.9281
lwrist 3.49701
lhand -14.6703 32.3491
lfingers 7.12502
lthumb 11.4828 62.0146
rfemur -79.068 3.87545 20.8519
rtibia 85.3401
rfoot -22.1098 4.83353
rtoes -4.37486
lfemur -30.6179 8.57802 7.90222
ltibia 92.8187
lfoot -26.4947 -6.93084
ltoes -43.7887
1038
root -1.3259 11.8748 5.32191 16.0665 -14.397 -5.50672
lowerback 15.0272 -3.03032 0.00492247
upperback -0.101026 -3.9094 1.28063
thorax -8.45261 -1.8556 2.2278
lowerneck -2.70772 11.9298 22.5442
upperneck 23.4281 16.1665 -9.8683
head 10.7163 8.55704 -5.23894
rclavicle -2.5842e-014 1.19271e-014
rhumerus 16.1699 32.0245 -82.1362
rradius 134.412
rwrist -38.8988
rhand -16.9194 -3.15591
rfingers 7.12502
rthumb 9.31311 -32.9302
lclavicle -2.5842e-014 1.19271e-014
lhumerus 43.792 -27.1241 63.6685
lradius 75.9952
lwrist -0.269191
lhand -14.5317 32.2129
lfingers 7.12502
lthumb 11.6164 61.8709
rfemur -79.0889 4.32883 21.2883
rtibia 85.2668
rfoot -21.9774 5.52504
rtoes -4.04692
lfemur -30.212 8.73111 7.97601
ltibia 93.3474
lfoot -26.1912 -6.64121
ltoes -43.5207
1039
root -1.30765 11.8481 5.31386 15.9625 -15.2237 -5.77843
lowerback 15.1822 -3.53568 -0.555054
upperback -0.0339146 -4.67984 1.24837
thorax -8.39925 -2.20529 2.68122
lowerneck -1.85438 12.5532 23.1873
upperneck 23.1421 17.258 -10.3696
head 10.7739 9.08573 -5.36665
rclavicle -4.13472e-014 7.15625e-015
rhumerus 16.2979 32.6123 -81.7461
rradius 134.278
rwrist -38.7634
rhand -17.0284 -3.33102
rfingers 7.12502
rthumb 9.20792 -33.11
lclavicle -4.13472e-014 7.15625e-015
lhumerus 46.1894 -24.8742 63.226
lradius 66.8832
lwrist -3.93266
lhand -14.3482 31.9821
lfingers 7.12502
lthumb 11.7933 61.63
rfemur -79.0872 4.67719 21.6321
rtibia 85.2185
rfoot -21.8617 6.13092
rtoes -3.75945
lfemur -29.9179 8.75728 8.0038
ltibia 93.8439
lfoot -25.8723 -6.4201
ltoes -43.2834
1040
root -1.29037 11.8244 5.30478 15.849 -15.8948 -6.01485
lowerback 15.3976 -4.03127 -1.11222
upperback 0.00572052 -5.43326 1.27628
thorax -8.38959 -2.5449 3.19916
lowerneck -1.02352 13.1136 23.6682
upperneck 22.8211 18.2802 -10.8789
head 10.805 9.57133 -5.48189
rclavicle 2.5842e-014 -1.59028e-015
rhumerus 16.5758 33.2158 -81.2407
rradius 134.104
rwrist -38.5162
rhand -17.1503 -3.53142
rfingers 7.12502
rthumb 9.0903 -33.3155
lclavicle 2.5842e-014 -1.59028e-015
lhumerus 48.0433 -22.3902 63.4839
lradius 58.1449
lwrist -7.44731
lhand -14.0338 31.5231
lfingers 7.12502
lthumb 12.0965 61.1535
rfemur -79.056 4.93791 21.9285
rtibia 85.1712
rfoot -21.7629 6.66292
rtoes -3.51489
lfemur -29.7125 8.69287 8.02956
ltibia 94.3039
lfoot -25.5607 -6.26255
ltoes -43.1013
1041
root -1.27288 11.8045 5.29538 15.753 -16.4465 -6.26247
lowerback 15.6485 -4.50183 -1.60596
upperback 0.0267195 -6.13918 1.3691
thorax -8.40595 -2.8621 3.74544
lowerneck -0.233727 13.6152 23.9938
upperneck 22.4491 19.2349 -11.4263
head 10.8081 10.0132 -5.5969
rclavicle -6.04305e-014 -6.36111e-015
rhumerus 17.0323 33.8439 -80.6242
rradius 133.865
rwrist -38.136
rhand -17.252 -3.6567
rfingers 7.12502
rthumb 8.99221 -33.445
lclavicle -6.04305e-014 -6.36111e-015
lhumerus 49.2417 -19.6133 64.5477
lradius 50.4223
lwrist -10.7776
lhand -13.5478 30.7268
lfingers 7.12502
lthumb 12.5651 60.3289
rfemur -78.9972 5.14144 22.2232
rtibia 85.0983
rfoot -21.6698 7.13903
rtoes -3.29902
lfemur -29.5685 8.59886 8.09733
ltibia 94.7221
lfoot -25.278 -6.16317
ltoes -42.9889
1042
root -1.25425 11.7889 5.28669 15.7003 -16.9151 -6.55034
lowerback 15.9157 -4.93001 -1.96642
upperback 0.025212 -6.76342 1.50757
thorax -8.45628 -3.143 4.25343
lowerneck 0.489817 14.0547 24.1947
upperneck 22.0369 20.1068 -12.0198
head 10.7909 10.4062 -5.72125
rclavicle 3.57812e-014 -2.54444e-014
rhumerus 17.6177 34.48 -79.9467
rradius 133.569
rwrist -37.5941
rhand -17.3245 -3.74324
rfingers 7.12502
rthumb 8.9222 -33.5346
lclavicle 3.57812e-014 -2.54444e-014
lhumerus 49.7723 -16.5653 66.3831
lradius 44.2793
lwrist -13.7925
lhand -12.9249 29.5379
lfingers 7.12502
lthumb 13.1656 59.1022
rfemur -78.9181 5.31134 22.5468
rtibia 84.9798
rfoot -21.5768 7.5816
rtoes -3.10549
lfemur -29.4603 8.52285 8.22764
ltibia 95.0903
lfoot -25.0465 -6.11015
ltoes -42.9265
1043
root -1.23393 11.7782 5.27918 15.7064 -17.3349 -6.87465
lowerback 16.1716 -5.29273 -2.15651
upperback 0.0099002 -7.27025 1.65378
thorax -8.53369 -3.37269 4.65241
lowerneck 1.08266 14.431 24.3109
upperneck 21.6145 20.8697 -12.6327
head 10.7713 10.741 -5.85125
rclavicle 4.81059e-014 -2.06736e-014
rhumerus 18.2861 35.0717 -79.2661
rradius 133.248
rwrist -36.9043
rhand -17.3576 -3.75098
rfingers 7.12502
rthumb 8.89023 -33.5437
lclavicle 4.81059e-014 -2.06736e-014
lhumerus 49.7784 -13.4525 68.6009
lradius 40.156
lwrist -16.0459
lhand -12.2883 28.1092
lfingers 7.12502
lthumb 13.7792 57.6329
rfemur -78.8377 5.46069 22.8979
rtibia 84.809
rfoot -21.4738 8.01357
rtoes -2.91645
lfemur -29.3725 8.5053 8.40603
ltibia 95.3996
lfoot -24.8734 -6.0961
ltoes -42.8922
1044
root -1.21148 11.7727 5.27359 15.7687 -17.7356 -7.20066
lowerback 16.3986 -5.5656 -2.16491
upperback -0.0259067 -7.62696 1.76803
thorax -8.65247 -3.53595 4.88588
lowerneck 1.52262 14.7287 24.3949
upperneck 21.2221 21.4943 -13.2549
head 10.7656 11.0074 -5.99477
rclavicle -1.76123e-013 -1.27222e-014
rhumerus 18.9392 35.555 -78.643
rradius 132.943
rwrist -36.1178
rhand -17.3197 -3.69377
rfingers 7.12502
rthumb 8.92685 -33.4849
lclavicle -1.76123e-013 -1.27222e-014
lhumerus 49.3747 -10.7146 70.5808
lradius 38.3034
lwrist -16.7793
lhand -11.7604 26.8066
lfingers 7.12502
lthumb 14.2879 56.2951
rfemur -78.7689 5.58862 23.2428
rtibia 84.5902
rfoot -21.3589 8.45688
rtoes -2.71216
lfemur -29.2852 8.55868 8.57658
ltibia 95.6371
lfoot -24.7574 -6.09913
ltoes -42.8677
1045
root -1.18724 11.7727 5.27012 15.8742 -18.1354 -7.46722
lowerback 16.5397 -5.7272 -2.01872
upperback -0.0639412 -7.81188 1.80721
thorax -8.77082 -3.62446 4.90881
lowerneck 1.77211 14.9392 24.462
upperneck 20.8883 21.9508 -13.8353
head 10.7781 11.1933 -6.13893
rclavicle 1.05753e-013 -2.54444e-014
rhumerus 19.516 35.8641 -78.1138
rradius 132.706
rwrist -35.2769
rhand -17.2182 -3.59051
rfingers 7.12502
rthumb 9.02475 -33.3775
lclavicle 1.05753e-013 -2.54444e-014
lhumerus 48.6778 -8.83849 71.6823
lradius 38.7047
lwrist -15.1967
lhand -11.4701 26.0388
lfingers 7.12502
lthumb 14.5676 55.5073
rfemur -78.7356 5.68733 23.5184
rtibia 84.3398
rfoot -21.229 8.92664
rtoes -2.47659
lfemur -29.1957 8.67923 8.65865
ltibia 95.7921
lfoot -24.6941 -6.08808
ltoes -42.8409
1046
root -1.16228 11.7778 5.26796 16.0127 -18.5454 -7.65097
lowerback 16.6101 -5.7652 -1.74589
upperback -0.122343 -7.8156 1.75547
thorax -8.91821 -3.63195 4.71944
lowerneck 1.83595 15.055 24.5229
upperneck 20.6613 22.2216 -14.316
head 10.8131 11.2935 -6.26942
rclavicle -4.8901e-014 1.59028e-014
rhumerus 19.9151 35.987 -77.7333
rradius 132.578
rwrist -34.4246
rhand -17.0479 -3.48307
rfingers 7.12502
rthumb 9.18908 -33.2629
lclavicle -4.8901e-014 1.59028e-014
lhumerus 47.6699 -8.02436 71.7652
lradius 41.1479
lwrist -11.1176
lhand -11.5765 26.0665
lfingers 7.12502
lthumb 14.4651 55.5423
rfemur -78.7494 5.77523 23.6966
rtibia 84.0683
rfoot -21.0778 9.40736
rtoes -2.21497
lfemur -29.1044 8.88559 8.63534
ltibia 95.8622
lfoot -24.6778 -6.07612
ltoes -42.8069
